<svg id="Layer_1" data-name="Layer 1" xmlns="http://www.w3.org/2000/svg" viewBox="0 0 1690.88 347.98"><defs><style>.cls-1{fill:#fff;}</style></defs><title>edlio</title><path class="cls-1" d="M610.37,421.45H528.88c0-22.29-8-41.58-24-57.55-16-16.3-35.25-24.28-57.55-24.28s-41.58,8-57.54,24.28c-15.64,16-23.63,35.26-23.63,57.55H286.7V334.58c24.3-4.34,45.76-15.76,63.94-34.14a128.78,128.78,0,0,0,17.55-21.71v.17a160,160,0,0,1,79.17-20.44c44.92,0,83.49,16,115.1,47.9,31.92,31.6,47.91,70.18,47.91,115.09M373.24,221.27a104.66,104.66,0,0,1-2.91,21.51l-.6,2.52c-.23.84-.44,1.67-.69,2.5s-.44,1.35-.64,2c-.3,1-.62,1.94-.95,2.91s-.6,1.87-.94,2.79c-.73,2-1.52,3.94-2.36,5.87a1.69,1.69,0,0,0-.12.28.31.31,0,0,0,0,.1c-.18.41-.38.81-.58,1.22q-2,4.39-4.45,8.6a102,102,0,0,1-16.69,21.85c-.31.33-.6.66-.93,1s-.47.44-.7.68-.57.53-.85.8a108.48,108.48,0,0,1-35.08,22.77c-1,.41-2,.78-3,1.16-.78.28-1.54.6-2.32.85a105.51,105.51,0,0,1-34.46,5.53l-.78,0-1.05,0c-.32,0-.63,0-.94,0-1,0-2,0-3-.06-1.58,0-3.15-.17-4.71-.29-.58-.05-1.16-.08-1.73-.14-1.33-.13-2.66-.29-4-.46-.84-.12-1.68-.23-2.52-.37s-2-.31-3-.49a101.68,101.68,0,0,1-12.28-3.11c-.27-.08-.53-.15-.79-.24-1.33-.43-2.66-.87-4-1.35q-2.92-1.05-5.75-2.26a108.09,108.09,0,0,1-38.35-28.19c-2.7-3.11-5.18-6.3-7.49-9.55l-.76-1.11c-1.48-2.15-2.89-4.32-4.2-6.54-.38-.62-.72-1.25-1.07-1.88q-1.75-3.1-3.28-6.3c-.22-.44-.45-.89-.66-1.34-1.24-2.66-2.32-5.37-3.32-8.11,0-.11-.07-.22-.12-.33a106.51,106.51,0,0,1-6.1-36.16c0-.25,0-.48,0-.73s0-.61,0-.93,0-.86,0-1.3c0-.75,0-1.51,0-2.25q.11-3.34.41-6.61l5.85-90.17a112.16,112.16,0,0,1,25.74,23.83,106.66,106.66,0,0,1,21.4-16.83l70-49.41a111.74,111.74,0,0,1-1.91,32.62l70-7.38a111.87,111.87,0,0,1-19,29.3A109.35,109.35,0,0,1,346,144.86a112.44,112.44,0,0,1,27.16-22V209.7a108.73,108.73,0,0,1,.08,11.57m-54.62-4.44c0-1.73-.09-3.43-.23-5.1a.06.06,0,0,1,0,0c-.16-1.74-.41-3.45-.73-5.13a2.34,2.34,0,0,0,0-.26c-.28-1.44-.64-2.84-1-4.23-.12-.43-.23-.85-.36-1.27-.29-1-.65-1.9-1-2.84s-.67-1.77-1.06-2.64c-.19-.43-.4-.85-.6-1.27A56.28,56.28,0,0,0,305,181.23a59.23,59.23,0,0,0-7.82-7.43c-.13-.1-.27-.19-.4-.3-1.23-.94-2.49-1.83-3.79-2.65-.27-.17-.54-.34-.82-.5-1.21-.74-2.44-1.44-3.7-2.08l-.91-.43c-1.28-.61-2.57-1.17-3.89-1.67l-.93-.33c-1.32-.47-2.66-.9-4-1.26-.38-.11-.77-.2-1.16-.29-1.27-.31-2.55-.58-3.85-.8-.67-.11-1.36-.2-2-.28-1-.14-2-.25-2.94-.33-1.32-.1-2.66-.17-4-.18l-.91,0a57.59,57.59,0,0,0-9.94.9l-1.56.32c-.83.17-1.63.39-2.44.6-1.22.33-2.42.69-3.59,1.09-.67.23-1.34.45-2,.7-.87.35-1.74.72-2.6,1.12l-.12.05a57.4,57.4,0,0,0-5.29,2.82l-.93.57c-.71.44-1.41.9-2.12,1.4a58.72,58.72,0,0,0-7.67,6.44,56.54,56.54,0,0,0-6.39,7.61c-.28.38-.57.76-.83,1.15-.42.67-.79,1.35-1.19,2-.53.92-1.09,1.83-1.58,2.79l-.15.32a56.77,56.77,0,0,0-4.86,14.73c-.12.72-.19,1.45-.29,2.18-.12.93-.24,1.87-.33,2.8a59.94,59.94,0,0,0,.18,10.52,57.44,57.44,0,0,0,1.45,7.94A55.42,55.42,0,0,0,220,248.39a53.39,53.39,0,0,0,35.12,22.34c.74.12,1.45.18,2.18.27,1,.12,2,.26,3.05.33.34,0,.7,0,1,.06,1.32.06,2.62.08,3.91.07.85,0,1.7-.06,2.54-.12s1.63-.09,2.43-.18c1-.11,2-.24,3-.4.72-.12,1.44-.23,2.16-.38.88-.17,1.74-.38,2.6-.6s1.87-.5,2.79-.79c.53-.16,1.06-.34,1.59-.52a55.35,55.35,0,0,0,17.7-10.38c1.18-1,2.27-2.12,3.34-3.21s2.1-2.27,3.1-3.5a54.88,54.88,0,0,0,9.24-16.5c.32-.95.65-1.89.91-2.88.16-.58.28-1.19.43-1.78.26-1.12.51-2.24.71-3.38.12-.72.21-1.46.3-2.19.14-1,.25-1.92.32-2.9.09-1.2.16-2.43.17-3.66,0-.42,0-.84,0-1.26" transform="translate(-155.04 -73.53)"/><path class="cls-1" d="M836,229.6c57,0,89.21,37.74,89.21,88.65,0,6.06-1.5,19.23-1.5,19.23H801.94c4.87,22.43,24.36,32.76,45,32.76,27.74,0,53.22-18.52,53.22-18.52l24,43.09s-31.11,26.7-82.46,26.7c-69,0-106.07-47.36-106.07-96.13C735.59,271.61,773.83,229.6,836,229.6Zm24,72.63c0-13.88-10.12-26.34-25.49-26.34-18.74,0-27.73,12.81-31.11,26.34Z" transform="translate(-155.04 -73.53)"/><path class="cls-1" d="M1075.91,229.6c39,0,50.6,14.6,50.6,14.6h.74s-.37-3.56-.37-8.19V162.66h64.84V417.24H1131V405.13c0-5.69.38-10.32.38-10.32h-.75s-16.12,26.7-55.85,26.7c-52.47,0-86.95-39.17-86.95-96.13C987.83,267.34,1024.56,229.6,1075.91,229.6Zm15,141c19.49,0,37.86-13.53,37.86-45.21,0-22.08-12.37-43.8-37.86-43.8-20.24,0-37.86,15.67-37.86,43.8C1053,352.79,1068.41,370.59,1090.9,370.59Z" transform="translate(-155.04 -73.53)"/><path class="cls-1" d="M1274.54,162.66h64.85V341.4c0,17.44,3.37,23.5,18,23.5,4.12,0,7.87-.36,7.87-.36V418a185.24,185.24,0,0,1-19.49,1.07c-34.48,0-71.22-7.84-71.22-69.43Z" transform="translate(-155.04 -73.53)"/><path class="cls-1" d="M1436.46,233.87h64.84V417.24h-64.84Zm.75-71.21h63.34v48.07h-63.34Z" transform="translate(-155.04 -73.53)"/><path class="cls-1" d="M1681.57,229.6c61.1,0,109.82,38.81,109.82,96.49,0,57.32-48.72,95.42-109.44,95.42s-109.44-38.1-109.44-95.42C1572.51,268.41,1621.23,229.6,1681.57,229.6Zm.38,140.64c23.61,0,43.85-16.74,43.85-44.15,0-27.77-20.24-45.22-43.85-45.22s-43.85,17.45-43.85,45.22C1638.1,353.5,1658.33,370.24,1682,370.24Z" transform="translate(-155.04 -73.53)"/><path class="cls-1" d="M1822.33,158.7a24.06,24.06,0,0,1,0,48.12c-13,0-23.4-10.68-23.4-24.06s10.41-24.06,23.4-24.06m0,43.63c10.61,0,18.78-8.56,18.78-19.57s-8.17-19.58-18.78-19.58-18.59,8.57-18.59,19.58,8.11,19.57,18.59,19.57m-8-32.09h9.55c4.68,0,7.85,3,7.85,7.58a6.57,6.57,0,0,1-4.55,6.58v.14a7,7,0,0,1,.86,1.38l4.74,9.17h-5.14l-4.61-9.63h-4v9.63h-4.67Zm8.63,11.79c2.44,0,4-1.58,4-4.21a3.71,3.71,0,0,0-4-4h-4V182Z" transform="translate(-155.04 -73.53)"/></svg>